# Blender 4.4.3
# www.blender.org
o d_cups_Collider25_m
v 0.02466900 0.00635200 -0.02515250
v 0.02436300 0.00627300 -0.03301950
v 0.02432900 -0.00614800 -0.02515250
v 0.02402800 -0.00607200 -0.03301950
v 0.02154600 0.00616800 -0.02515250
v 0.02153200 0.00616400 -0.03301950
v 0.02122000 -0.00585400 -0.02515250
v 0.02120500 -0.00585000 -0.03301950
vn 0.9989 -0.0271 -0.0385
vn -0.0942 -0.9955 -0.0060
vn -0.9996 0.0272 0.0018
vn -0.0587 0.9982 -0.0077
vn -0.0000 -0.0000 1.0000
vn -0.0000 -0.0000 -1.0000
vn -0.0782 -0.9969 -0.0003
vn -0.0384 0.9993 -0.0004
s 0
f 2//1 1//1 3//1
f 4//2 3//2 7//2
f 7//3 5//3 6//3
f 5//4 1//4 2//4
f 3//5 1//5 5//5
f 4//6 8//6 6//6
f 2//1 3//1 4//1
f 4//7 7//7 8//7
f 7//3 6//3 8//3
f 5//8 2//8 6//8
f 3//5 5//5 7//5
f 4//6 6//6 2//6
