# Blender 4.4.3
# www.blender.org
o d_cups_Collider32_m
v 0.01834200 0.02157000 0.03301950
v 0.02571000 0.02582400 0.03301950
v 0.01834200 0.02157000 0.02918050
v 0.02779400 0.00519900 0.03301950
v 0.03516100 0.00945300 0.03301950
v 0.02779400 0.00519900 0.02918050
v 0.03516100 0.00945300 0.02918050
v 0.02571000 0.02582400 0.02918050
vn -0.0000 -0.0000 -1.0000
vn 0.5000 -0.8660 -0.0000
vn 0.8660 0.5000 -0.0000
vn -0.5000 0.8660 -0.0000
vn -0.0000 -0.0000 1.0000
vn -0.8660 -0.5000 -0.0000
s 0
f 5//1 1//1 2//1
f 3//2 2//2 1//2
f 6//3 1//3 4//3
f 7//4 4//4 5//4
f 7//5 3//5 6//5
f 8//6 5//6 2//6
f 5//1 4//1 1//1
f 3//2 8//2 2//2
f 6//3 3//3 1//3
f 7//4 6//4 4//4
f 7//5 8//5 3//5
f 8//6 7//6 5//6
