# Blender 4.4.3
# www.blender.org
o d_cups_Collider11_m
v -0.00731400 -0.02941600 0.03115550
v -0.00715400 -0.02877200 -0.02521750
v -0.02019500 -0.02198300 0.03115550
v -0.01975400 -0.02150200 -0.02521750
v -0.00613900 -0.02787600 0.03115550
v -0.00597000 -0.02708700 -0.02521750
v -0.01939500 -0.02022700 0.03115550
v -0.01885200 -0.01965500 -0.02521750
vn -0.4997 -0.8661 -0.0113
vn -0.9100 0.4147 -0.0036
vn 0.4997 0.8661 0.0136
vn 0.7949 -0.6067 -0.0047
vn -0.0000 -0.0000 1.0000
vn -0.0000 -0.0000 -1.0000
vn -0.8986 0.4388 -0.0042
vn 0.8182 -0.5749 -0.0056
s 0
f 2//1 1//1 3//1
f 4//2 3//2 7//2
f 7//3 5//3 6//3
f 5//4 1//4 2//4
f 7//5 3//5 1//5
f 8//6 6//6 2//6
f 2//1 3//1 4//1
f 4//7 7//7 8//7
f 7//3 6//3 8//3
f 5//8 2//8 6//8
f 7//5 1//5 5//5
f 8//6 2//6 4//6
