# Blender 4.4.3
# www.blender.org
o d_cups_Collider19_m
v -0.01780000 -0.01823600 -0.02515250
v -0.01757900 -0.01801000 -0.03301950
v -0.02398800 -0.00737100 -0.02515250
v -0.02369100 -0.00727900 -0.03301950
v -0.01523600 -0.01646300 -0.02515250
v -0.01522900 -0.01645300 -0.03301950
v -0.02118800 -0.00601300 -0.02515250
v -0.02117700 -0.00601000 -0.03301950
vn -0.8683 -0.4945 -0.0385
vn -0.4363 0.8998 -0.0060
vn 0.8690 0.4949 0.0014
vn 0.5689 -0.8224 -0.0077
vn -0.0000 -0.0000 1.0000
vn -0.0000 -0.0000 -1.0000
vn -0.4508 0.8926 -0.0002
vn 0.5522 -0.8337 -0.0005
s 0
f 2//1 1//1 3//1
f 4//2 3//2 7//2
f 7//3 5//3 6//3
f 5//4 1//4 2//4
f 3//5 1//5 5//5
f 4//6 8//6 6//6
f 2//1 3//1 4//1
f 4//7 7//7 8//7
f 7//3 6//3 8//3
f 5//8 2//8 6//8
f 3//5 5//5 7//5
f 4//6 6//6 2//6
