# Blender 4.4.3
# www.blender.org
o d_cups_Collider02_m
v 0.02177300 -0.02108300 0.03115550
v 0.02129700 -0.02062200 -0.02521750
v 0.00888400 -0.02850100 0.03115550
v 0.00868900 -0.02787800 -0.02521750
v 0.02103300 -0.01929900 0.03115550
v 0.02043300 -0.01875300 -0.02521750
v 0.00776800 -0.02693400 0.03115550
v 0.00754300 -0.02617200 -0.02521750
vn 0.4988 -0.8666 -0.0113
vn -0.8148 -0.5798 -0.0036
vn -0.4988 0.8666 0.0137
vn 0.9236 0.3834 -0.0047
vn -0.0000 -0.0000 1.0000
vn -0.0000 -0.0000 -1.0000
vn -0.8301 -0.5576 -0.0042
vn 0.9076 0.4198 -0.0056
s 0
f 2//1 1//1 3//1
f 4//2 3//2 7//2
f 7//3 5//3 6//3
f 5//4 1//4 2//4
f 7//5 3//5 1//5
f 8//6 6//6 2//6
f 2//1 3//1 4//1
f 4//7 7//7 8//7
f 7//3 6//3 8//3
f 5//8 2//8 6//8
f 7//5 1//5 5//5
f 8//6 2//6 4//6
