# Blender 4.4.3
# www.blender.org
o d_cups_Collider15_m
v 0.02089000 0.02193600 0.03115550
v 0.02043200 0.02145600 -0.02521750
v 0.02841500 0.00910900 0.03115550
v 0.02779300 0.00891000 -0.02521750
v 0.01911700 0.02117500 0.03115550
v 0.01857100 0.02057600 -0.02521750
v 0.02686100 0.00797400 0.03115550
v 0.02609600 0.00774800 -0.02521750
vn 0.8625 0.5060 -0.0113
vn 0.5899 -0.8075 -0.0037
vn -0.8625 -0.5060 0.0137
vn -0.3947 0.9188 -0.0046
vn -0.0000 -0.0000 1.0000
vn -0.0000 -0.0000 -1.0000
vn 0.5648 -0.8252 -0.0044
vn -0.4277 0.9039 -0.0055
s 0
f 2//1 1//1 3//1
f 4//2 3//2 7//2
f 7//3 5//3 6//3
f 5//4 1//4 2//4
f 7//5 3//5 1//5
f 8//6 6//6 2//6
f 2//1 3//1 4//1
f 4//7 7//7 8//7
f 7//3 6//3 8//3
f 5//8 2//8 6//8
f 7//5 1//5 5//5
f 8//6 2//6 4//6
