# Blender 4.4.3
# www.blender.org
o d_cups_Collider21_m
v -0.01901300 0.01694700 -0.02515250
v -0.01877800 0.01673800 -0.03301950
v -0.00843800 0.02362100 -0.02515250
v -0.00833400 0.02332800 -0.03301950
v -0.01713200 0.01446100 -0.02515250
v -0.01712300 0.01445300 -0.03301950
v -0.00696200 0.02087900 -0.02515250
v -0.00695900 0.02086700 -0.03301950
vn -0.5333 0.8451 -0.0385
vn 0.8804 0.4742 -0.0060
vn 0.5337 -0.8457 0.0015
vn -0.7975 -0.6033 -0.0078
vn -0.0000 -0.0000 1.0000
vn -0.0000 -0.0000 -1.0000
vn 0.8730 0.4876 -0.0005
vn -0.8100 -0.5864 -0.0002
s 0
f 2//1 1//1 3//1
f 4//2 3//2 7//2
f 8//3 7//3 5//3
f 5//4 1//4 2//4
f 3//5 1//5 5//5
f 4//6 8//6 6//6
f 2//1 3//1 4//1
f 4//7 7//7 8//7
f 8//3 5//3 6//3
f 5//8 2//8 6//8
f 3//5 5//5 7//5
f 4//6 6//6 2//6
