# Blender 4.4.3
# www.blender.org
o d_cups_Collider17_m
v 0.00729100 -0.02442000 -0.02515250
v 0.00720100 -0.02411800 -0.03301950
v -0.00521200 -0.02455400 -0.02515250
v -0.00514800 -0.02425000 -0.03301950
v 0.00698300 -0.02131300 -0.02515250
v 0.00697700 -0.02130000 -0.03301950
v -0.00504200 -0.02144100 -0.02515250
v -0.00504100 -0.02142900 -0.03301950
vn 0.0107 -0.9992 -0.0385
vn -0.9985 0.0545 -0.0061
vn -0.0107 0.9999 0.0016
vn 0.9951 0.0987 -0.0076
vn -0.0000 -0.0000 1.0000
vn -0.0000 -0.0000 -1.0000
vn -0.9993 0.0379 -0.0001
vn 0.9969 0.0791 -0.0006
s 0
f 2//1 1//1 3//1
f 4//2 3//2 7//2
f 7//3 5//3 6//3
f 5//4 1//4 2//4
f 3//5 1//5 5//5
f 4//6 8//6 6//6
f 2//1 3//1 4//1
f 4//7 7//7 8//7
f 7//3 6//3 8//3
f 5//8 2//8 6//8
f 3//5 5//5 7//5
f 4//6 6//6 2//6
