# Blender 4.4.3
# www.blender.org
o d_cups_Collider09_m
v -0.02931100 -0.00769000 0.03115550
v -0.02867000 -0.00752200 -0.02521750
v -0.02896400 0.00717800 0.03115550
v -0.02833100 0.00702100 -0.02521750
v -0.02739300 -0.00797900 0.03115550
v -0.02662400 -0.00775300 -0.02521750
v -0.02703600 0.00732200 0.03115550
v -0.02627700 0.00711500 -0.02521750
vn -0.9997 0.0233 -0.0113
vn -0.0746 0.9972 -0.0036
vn 0.9996 -0.0233 0.0135
vn -0.1488 -0.9889 -0.0046
vn -0.0000 -0.0000 1.0000
vn -0.0000 -0.0000 -1.0000
vn -0.0457 0.9989 -0.0043
vn -0.1122 -0.9937 -0.0055
s 0
f 2//1 1//1 3//1
f 4//2 3//2 7//2
f 7//3 5//3 6//3
f 5//4 1//4 2//4
f 7//5 3//5 1//5
f 8//6 6//6 2//6
f 2//1 3//1 4//1
f 4//7 7//7 8//7
f 7//3 6//3 8//3
f 5//8 2//8 6//8
f 7//5 1//5 5//5
f 8//6 2//6 4//6
