# Blender 4.4.3
# www.blender.org
o d_cups_Collider07_m
v -0.02261300 0.02015600 0.03115550
v -0.02211900 0.01971600 -0.02521750
v -0.01003600 0.02809300 0.03115550
v -0.00981700 0.02747900 -0.02521750
v -0.02178900 0.01840300 0.03115550
v -0.02117800 0.01788300 -0.02521750
v -0.00884600 0.02657100 0.03115550
v -0.00860100 0.02582000 -0.02521750
vn -0.5336 0.8456 -0.0113
vn 0.7878 0.6159 -0.0036
vn 0.5336 -0.8456 0.0136
vn -0.9050 -0.4253 -0.0046
vn -0.0000 -0.0000 1.0000
vn -0.0000 -0.0000 -1.0000
vn 0.8067 0.5910 -0.0044
vn -0.8897 -0.4565 -0.0054
s 0
f 2//1 1//1 3//1
f 4//2 3//2 7//2
f 7//3 5//3 6//3
f 5//4 1//4 2//4
f 7//5 3//5 1//5
f 8//6 6//6 2//6
f 2//1 3//1 4//1
f 4//7 7//7 8//7
f 7//3 6//3 8//3
f 5//8 2//8 6//8
f 7//5 1//5 5//5
f 8//6 2//6 4//6
