# Blender 4.4.3
# www.blender.org
o d_cups_Collider01_m
v 0.00714000 0.02943500 0.03115550
v 0.00698400 0.02879100 -0.02521750
v 0.02006500 0.02207800 0.03115550
v 0.01962600 0.02159500 -0.02521750
v 0.00598600 0.02788700 0.03115550
v 0.00581100 0.02709900 -0.02521750
v 0.01928700 0.02031700 0.03115550
v 0.01873600 0.01974200 -0.02521750
vn 0.4946 0.8690 -0.0113
vn 0.9146 -0.4043 -0.0037
vn -0.4946 -0.8690 0.0137
vn -0.8014 0.5981 -0.0046
vn -0.0000 -0.0000 1.0000
vn -0.0000 -0.0000 -1.0000
vn 0.9014 -0.4330 -0.0044
vn -0.8219 0.5697 -0.0054
s 0
f 2//1 1//1 3//1
f 4//2 3//2 7//2
f 7//3 5//3 6//3
f 5//4 1//4 2//4
f 7//5 3//5 1//5
f 8//6 6//6 2//6
f 2//1 3//1 4//1
f 4//7 7//7 8//7
f 7//3 6//3 8//3
f 5//8 2//8 6//8
f 7//5 1//5 5//5
f 8//6 2//6 4//6
