# Blender 4.4.3
# www.blender.org
o d_cups_Collider08_m
v -0.02952800 0.00678300 0.03115550
v -0.02888300 0.00663500 -0.02521750
v -0.02232400 0.01979300 0.03115550
v -0.02183600 0.01936100 -0.02521750
v -0.02796200 0.00564000 0.03115550
v -0.02717700 0.00548100 -0.02521750
v -0.02054800 0.01902900 0.03115550
v -0.01997200 0.01849100 -0.02521750
vn -0.8748 0.4844 -0.0113
vn 0.3952 0.9186 -0.0036
vn 0.8747 -0.4844 0.0136
vn -0.5894 -0.8078 -0.0046
vn -0.0000 -0.0000 1.0000
vn -0.0000 -0.0000 -1.0000
vn 0.4228 0.9062 -0.0043
vn -0.5603 -0.8283 -0.0055
s 0
f 2//1 1//1 3//1
f 4//2 3//2 7//2
f 7//3 5//3 6//3
f 5//4 1//4 2//4
f 7//5 3//5 1//5
f 8//6 6//6 2//6
f 2//1 3//1 4//1
f 4//7 7//7 8//7
f 7//3 6//3 8//3
f 5//8 2//8 6//8
f 7//5 1//5 5//5
f 8//6 2//6 4//6
