# Blender 4.4.3
# www.blender.org
o d_cups_Collider24_m
v 0.01756400 0.01844400 -0.02515250
v 0.01734600 0.01821600 -0.03301950
v 0.02389100 0.00765800 -0.02515250
v 0.02359500 0.00756400 -0.03301950
v 0.01501100 0.01663900 -0.02515250
v 0.01500100 0.01662900 -0.03301950
v 0.02109600 0.00626600 -0.02515250
v 0.02108200 0.00626200 -0.03301950
vn 0.8619 0.5056 -0.0385
vn 0.4460 -0.8950 -0.0060
vn -0.8625 -0.5060 0.0018
vn -0.5773 0.8165 -0.0077
vn -0.0000 -0.0000 1.0000
vn -0.0000 -0.0000 -1.0000
vn 0.4600 -0.8879 -0.0004
vn -0.5603 0.8283 -0.0003
s 0
f 2//1 1//1 3//1
f 4//2 3//2 7//2
f 8//3 7//3 5//3
f 5//4 1//4 2//4
f 3//5 1//5 5//5
f 4//6 8//6 6//6
f 2//1 3//1 4//1
f 4//7 7//7 8//7
f 8//3 5//3 6//3
f 5//8 2//8 6//8
f 3//5 5//5 7//5
f 4//6 6//6 2//6
