# Blender 4.4.3
# www.blender.org
o d_cups_Collider03_m
v -0.02464500 -0.00646600 -0.02515250
v -0.02434000 -0.00638600 -0.03301950
v -0.02435300 0.00603500 -0.02515250
v -0.02405100 0.00596000 -0.03301950
v -0.02153500 -0.00626900 -0.02515250
v -0.02152400 -0.00626500 -0.03301950
v -0.02125500 0.00575400 -0.02515250
v -0.02124400 0.00575000 -0.03301950
vn -0.9990 0.0233 -0.0385
vn 0.0905 0.9959 -0.0060
vn 0.9997 -0.0233 0.0014
vn 0.0631 -0.9980 -0.0077
vn -0.0000 -0.0000 1.0000
vn -0.0000 -0.0000 -1.0000
vn 0.0747 0.9972 -0.0003
vn 0.0426 -0.9991 -0.0004
s 0
f 2//1 1//1 3//1
f 4//2 3//2 7//2
f 7//3 5//3 6//3
f 5//4 1//4 2//4
f 3//5 1//5 5//5
f 4//6 8//6 6//6
f 2//1 3//1 4//1
f 4//7 7//7 8//7
f 7//3 6//3 8//3
f 5//8 2//8 6//8
f 3//5 5//5 7//5
f 4//6 6//6 2//6
