# Blender 4.4.3
# www.blender.org
o d_cups_Collider26_m
v 0.02439600 -0.00734800 -0.02515250
v 0.02409400 -0.00725700 -0.03301950
v 0.01763000 -0.01786400 -0.02515250
v 0.01741100 -0.01764200 -0.03301950
v 0.02162900 -0.00589100 -0.02515250
v 0.02161500 -0.00588700 -0.03301950
v 0.01512200 -0.01600400 -0.02515250
v 0.01511100 -0.01599500 -0.03301950
vn 0.8403 -0.5407 -0.0386
vn -0.5955 -0.8033 -0.0061
vn -0.8410 0.5411 0.0018
vn 0.4660 0.8848 -0.0077
vn -0.0000 -0.0000 1.0000
vn -0.0000 -0.0000 -1.0000
vn -0.5823 -0.8130 -0.0002
vn 0.4836 0.8753 -0.0005
s 0
f 2//1 1//1 3//1
f 4//2 3//2 7//2
f 7//3 5//3 6//3
f 5//4 1//4 2//4
f 3//5 1//5 5//5
f 4//6 8//6 6//6
f 2//1 3//1 4//1
f 4//7 7//7 8//7
f 7//3 6//3 8//3
f 5//8 2//8 6//8
f 3//5 5//5 7//5
f 4//6 6//6 2//6
